# xmcd
#
# Track frame offsets: 
#        150
#        15342
#        29599
#        42749
#        53860
#        66771
#        86804
#        101394
#        116967
#        128760
#        141948
#        155983
#        167877
#        182585
#        197217
#        209258
#        221914
#        236389
#        257084
#        272163
#        292852
#        306277
#        323812
#        331474
#        347051
#
# Disc length: 4784 seconds
#
# Revision: 0
# Processed by: cddbd v1.5.2PL0 Copyright (c) Steve Scherf et al.
# Submitted via: ExactAudioCopy v0.99pb5
#
DISCID=8812ae19
DTITLE=Frank Sinatra - Ultimate Sinatra [Deluxe] 4
DYEAR=2015
DGENRE=Vocal
TTITLE0=The Way You Look Tonight
TTITLE1=My Kind of Town
TTITLE2=The Best Is Yet to Come
TTITLE3=Fly Me to the Moon (In Other Words)
TTITLE4=Softly, As I Leave You
TTITLE5=It Was a Very Good Year
TTITLE6=September of My Years
TTITLE7=Moonlight Serenade
TTITLE8=Strangers in the Night
TTITLE9=Summer Wind
TTITLE10=That's Life
TTITLE11=I Concentrate on You
TTITLE12=The Girl from Ipanema
TTITLE13=Drinking Again
TTITLE14=Somethin' Stupid [+Nancy Sinatra]
TTITLE15=The World We Knew (Over and Over)
TTITLE16=Cycles
TTITLE17=My Way
TTITLE18=Wave
TTITLE19=All My Tomorrows
TTITLE20=Forget to Remember
TTITLE21=It Had to Be You
TTITLE22=All of You
TTITLE23=Theme from 'New York, New York'
TTITLE24=The Surrey with the Fringe on Top
EXTD=
EXTT0=
EXTT1=
EXTT2=
EXTT3=
EXTT4=
EXTT5=
EXTT6=
EXTT7=
EXTT8=
EXTT9=
EXTT10=
EXTT11=
EXTT12=
EXTT13=
EXTT14=
EXTT15=
EXTT16=
EXTT17=
EXTT18=
EXTT19=
EXTT20=
EXTT21=
EXTT22=
EXTT23=
EXTT24=
PLAYORDER=
